<?xml version="1.0"?>
<svg xmlns="http://www.w3.org/2000/svg" xmlns:xlink="http://www.w3.org/1999/xlink" data-noselect="" viewBox="0 0 800 600" width="1600" height="1200" preserveAspectRatio="none" version="1.1"><defs/> <g id="background" data-noselect=""><rect fill="#ffffff" width="800" height="600" data-noselect=""/> <!----></g> <g id="shape_F713obg7mh" transform="translate(100.73339125365999,212.22598840275998) rotate(0,55.472249269718,60) scale(1,1)" filter="" style="cursor: move; opacity: 1;"><g><svg xmlns="http://www.w3.org/2000/svg" xmlns:xlink="http://www.w3.org/1999/xlink" version="1.1" id="&#x56FE;&#x5C42;_1" x="0px" y="0px" width="110.94449853944" height="120" viewBox="0 0 189.9 205.4" style="enable-background:new 0 0 189.9 205.4;" xml:space="preserve" class="style-removed" preserveAspectRatio="none" data-parent="shape_F713obg7mh">

<g>
	<path d="M97.6,61.7c0,3.1-0.3,6.2-0.9,9.2L81.5,60.4v36.8c-8.3,7.2-19.1,11.6-31,11.6c-1.7,0-3.4-0.1-5-0.3   C21.8,106.1,3.4,86.1,3.4,61.7c0-26,21.1-47.1,47.1-47.1c19.3,0,35.9,11.6,43.2,28.2C96.2,48.6,97.6,55,97.6,61.7z" fill="#F15022" stroke-width="0"/>
	<circle cx="160.7" cy="129.6" r="29.3" fill="#FFB800" stroke-width="0"/>
	<circle cx="33.9" cy="171.5" r="33.9" fill="#7FB900" stroke-width="0"/>
	<path d="M101.5,42.3c-2.7,0-5.3,0.2-7.8,0.5c-27.7,3.8-49,27.6-49,56.3c0,3.2,0.3,6.4,0.8,9.5   c4.5,26.8,27.9,47.3,56,47.3c12.8,0,24.5-4.2,34-11.3c13.5-10.1,22.4-26.1,22.8-44.2c0-0.5,0-0.9,0-1.4   C158.4,67.7,132.9,42.3,101.5,42.3z M81.5,137.7V60.4l15.3,10.5l41.1,28.2L81.5,137.7z" fill="#00A3EE" stroke-width="0"/>
	<circle cx="132.7" cy="14.6" r="14.6" fill="#0072C5" stroke-width="0"/>
</g>
</svg></g></g><g id="shape_8Tg32KRms6" transform="translate(86.77564052337999,82.43598840275996) rotate(0,347.43,249.79000000000002) scale(1,1)" filter="" style="cursor: move; opacity: 1;"><g><svg xmlns="http://www.w3.org/2000/svg" xmlns:xlink="http://www.w3.org/1999/xlink" version="1.1" width="833.72" height="512.91056" viewBox="0 0 833.72 512.91056" data-parent="shape_8Tg32KRms6"><g data-width="301.74278000000004" transform="translate(69.43, 0)"><path d="M21.45 0L12.22 0L1.87-38.19L9.93-38.19L15.00-17.50Q15.76-13.82 16.39-10.28L16.39-10.28Q16.73-8.47 17.08-6.67L17.08-6.67L17.36-6.67Q17.77-8.47 18.19-10.28L18.19-10.28Q18.95-13.89 19.86-17.50L19.86-17.50L25.20-38.19L32.63-38.19L38.12-17.50Q38.74-14.93 39.30-12.43L39.30-12.43Q39.99-9.58 40.69-6.67L40.69-6.67L40.96-6.67Q41.45-8.89 41.87-11.11L41.87-11.11Q42.49-14.23 43.19-17.50L43.19-17.50L48.11-38.19L55.61-38.19L45.75 0L36.17 0L31.31-18.88Q30.27-23.26 29.30-27.91L29.30-27.91Q29.09-28.88 28.88-29.92L28.88-29.92L28.54-29.92Q27.49-24.09 26.11-18.82L26.11-18.82L21.45 0Z" transform="translate(0 275.29) " fill="rgb(51, 67, 78)" stroke="rgb(51, 67, 78)" stroke-width="0.116" data-glyph-w="57.488040000000005" data-glyph-h="69.43" data-glyph-ascender="61.098400000000005" data-glyph-descender="-8.3316"/><path d="M16.39 0.90L16.39 0.90Q12.43 0.90 8.64-0.56Q4.86-2.01 2.01-4.37L2.01-4.37L5.76-9.51Q8.26-7.43 10.90-6.28Q13.54-5.14 16.59-5.14L16.59-5.14Q20.07-5.14 21.70-6.63Q23.33-8.12 23.33-10.28L23.33-10.28Q23.33-11.94 22.15-13.09Q20.97-14.23 19.16-15.10Q17.36-15.97 15.27-16.73L15.27-16.73Q15.07-16.80 14.86-16.87L14.86-16.87Q12.29-17.84 9.79-19.20Q7.29-20.55 5.62-22.67Q3.96-24.79 3.96-27.98L3.96-27.98Q3.96-32.77 7.57-35.96Q11.18-39.16 17.50-39.16L17.50-39.16Q21.38-39.16 24.47-37.84Q27.56-36.52 29.92-34.65L29.92-34.65L26.18-29.72Q24.23-31.17 22.15-32.11Q20.07-33.05 17.64-33.05L17.64-33.05Q14.51-33.05 13.02-31.69Q11.53-30.34 11.53-28.33L11.53-28.33Q11.53-26.04 13.75-24.79Q15.97-23.54 18.95-22.56L18.95-22.56Q19.30-22.43 19.65-22.29L19.65-22.29Q22.36-21.32 24.93-20.00Q27.49-18.68 29.20-16.49Q30.90-14.30 30.90-10.69L30.90-10.69Q30.90-5.90 27.18-2.50Q23.47 0.90 16.39 0.90Z" transform="translate(57.488040000000005 275.29) " fill="rgb(51, 67, 78)" stroke="rgb(51, 67, 78)" stroke-width="0.116" data-glyph-w="33.3264" data-glyph-h="69.43" data-glyph-ascender="61.098400000000005" data-glyph-descender="-8.3316"/><path d="M14.79 0L6.73 0L6.73-51.10L22.22-51.10Q27.91-51.10 32.32-49.64Q36.73-48.18 39.23-44.82Q41.73-41.45 41.73-35.69L41.73-35.69Q41.73-30.13 39.23-26.49Q36.73-22.84 32.39-21.11Q28.05-19.37 22.50-19.37L22.50-19.37L14.79-19.37L14.79 0ZM14.79-44.64L14.79-25.83L21.73-25.83Q34.02-25.83 33.81-35.69L33.81-35.69Q33.81-40.76 30.69-42.70Q27.56-44.64 21.45-44.64L21.45-44.64L14.79-44.64Z" transform="translate(90.81444 275.29) " fill="rgb(51, 67, 78)" stroke="rgb(51, 67, 78)" stroke-width="0.116" data-glyph-w="44.92121" data-glyph-h="69.43" data-glyph-ascender="61.098400000000005" data-glyph-descender="-8.3316"/><path d="M13.96 0.90L13.96 0.90Q9.65 0.90 7.85-1.70Q6.04-4.30 6.04-8.96L6.04-8.96L6.04-55.34L13.96-55.34L13.96-8.54Q13.96-6.94 14.58-6.28Q15.21-5.62 15.90-5.62L15.90-5.62Q16.18-5.62 16.45-5.66Q16.73-5.69 17.22-5.76L17.22-5.76L18.26 0.28Q16.87 0.90 13.96 0.90Z" transform="translate(135.73565000000002 275.29) " fill="rgb(51, 67, 78)" stroke="rgb(51, 67, 78)" stroke-width="0.116" data-glyph-w="20.690140000000003" data-glyph-h="69.43" data-glyph-ascender="61.098400000000005" data-glyph-descender="-8.3316"/><path d="M15.07 0.90L15.07 0.90Q10.14 0.90 6.98-2.08Q3.82-5.07 3.82-10.14L3.82-10.14Q3.82-16.32 9.30-19.68Q14.79-23.05 26.66-24.30L26.66-24.30Q26.66-26.52 26.00-28.43Q25.34-30.34 23.78-31.49Q22.22-32.63 19.37-32.63L19.37-32.63Q16.39-32.63 13.57-31.49Q10.76-30.34 8.33-28.74L8.33-28.74L5.35-34.16Q8.33-36.10 12.25-37.63Q16.18-39.16 20.76-39.16L20.76-39.16Q27.91-39.16 31.28-34.89Q34.65-30.62 34.65-22.98L34.65-22.98L34.65 0L28.12 0L27.42-4.37L27.22-4.37Q24.58-2.08 21.56-0.59Q18.54 0.90 15.07 0.90ZM17.50-5.42L17.50-5.42Q20.00-5.42 22.18-6.56Q24.37-7.71 26.66-9.86L26.66-9.86L26.66-19.23Q18.26-18.19 14.89-16.07Q11.53-13.96 11.53-10.69L11.53-10.69Q11.53-7.92 13.23-6.67Q14.93-5.42 17.50-5.42Z" transform="translate(156.42579000000003 275.29) " fill="rgb(51, 67, 78)" stroke="rgb(51, 67, 78)" stroke-width="0.116" data-glyph-w="39.922250000000005" data-glyph-h="69.43" data-glyph-ascender="61.098400000000005" data-glyph-descender="-8.3316"/><path d="M29.09-38.19L36.87-38.19L22.84 2.29Q21.38 6.39 19.41 9.48Q17.43 12.57 14.62 14.27Q11.80 15.97 7.78 15.97L7.78 15.97Q4.86 15.97 2.99 15.21L2.99 15.21L4.51 8.96Q4.58 8.96 4.58 8.96L4.58 8.96Q5.14 9.16 5.87 9.34Q6.60 9.51 7.29 9.51L7.29 9.51Q10.41 9.51 12.32 7.50Q14.23 5.48 15.27 2.36L15.27 2.36L16.04-0.28L0.90-38.19L9.10-38.19L16.18-18.54Q16.87-16.39 17.57-14.09L17.57-14.09Q18.61-10.90 19.65-7.78L19.65-7.78L20.00-7.78L22.98-18.54L29.09-38.19Z" transform="translate(196.34804000000003 275.29) " fill="rgb(51, 67, 78)" stroke="rgb(51, 67, 78)" stroke-width="0.116" data-glyph-w="37.769920000000006" data-glyph-h="69.43" data-glyph-ascender="61.098400000000005" data-glyph-descender="-8.3316"/><path d="M21.94 0.90L21.94 0.90Q16.80 0.90 12.57-1.46Q8.33-3.82 5.83-8.30Q3.33-12.78 3.33-19.02L3.33-19.02Q3.33-25.27 5.83-29.79Q8.33-34.30 12.32-36.73Q16.32-39.16 20.76-39.16L20.76-39.16Q28.40-39.16 32.35-34.16Q36.31-29.16 36.31-21.04L36.31-21.04Q36.31-18.75 35.96-17.01L35.96-17.01L11.18-17.01Q11.73-11.53 14.89-8.44Q18.05-5.35 22.98-5.35L22.98-5.35Q28.12-5.35 32.08-8.19L32.08-8.19L34.85-3.12Q32.22-1.32 28.95-0.21Q25.69 0.90 21.94 0.90ZM11.11-22.50L11.11-22.50L29.44-22.50Q29.44-27.42 27.25-30.17Q25.06-32.91 20.90-32.91L20.90-32.91Q17.29-32.91 14.55-30.24Q11.80-27.56 11.11-22.50Z" transform="translate(234.11796000000004 275.29) " fill="rgb(51, 67, 78)" stroke="rgb(51, 67, 78)" stroke-width="0.116" data-glyph-w="39.22795" data-glyph-h="69.43" data-glyph-ascender="61.098400000000005" data-glyph-descender="-8.3316"/><path d="M13.96 0L6.04 0L6.04-38.19L12.57-38.19L13.19-31.31L13.40-31.31Q18.12-39.16 24.23-39.16L24.23-39.16Q27.08-39.16 28.54-38.33L28.54-38.33L27.08-31.38Q26.11-31.73 25.27-31.87Q24.44-32.01 23.26-32.01L23.26-32.01Q20.90-32.01 18.36-30.13Q15.83-28.26 13.96-23.81L13.96-23.81L13.96 0Z" transform="translate(273.34591000000006 275.29) " fill="rgb(51, 67, 78)" stroke="rgb(51, 67, 78)" stroke-width="0.116" data-glyph-w="28.396870000000003" data-glyph-h="69.43" data-glyph-ascender="61.098400000000005" data-glyph-descender="-8.3316"/></g></svg></g></g>  <!----></svg>
